<svg xmlns="http://www.w3.org/2000/svg" xmlns:xlink="http://www.w3.org/1999/xlink" width="40" height="40" viewBox="0 0 40 40"><defs><clipPath id="b"><rect width="40" height="40"/></clipPath></defs><g id="a"><g transform="translate(5.442 7.084)"><g transform="translate(13.003 9.833)"><path d="M961.174,612.09c.761,1.1,2.744,4.152,4.047,6.121a2.491,2.491,0,0,1,.7,1.69,2.94,2.94,0,0,1-.349,1.473c-.955,2.2-1.928,1.567-3.209,2.91l-5.939-8.918Z" transform="translate(-950.174 -612.09)" fill="#27a600" fill-rule="evenodd"/><path d="M735.179,854.978c-.475.9-1.637,3.4-2.186,4.524-.161.331-.583.959-1.069,1.012s-3.651.053-5.383.142c0,0,.021,2.807.015,3.082,0,.2-.2.291-.326.166-.066-.065-6.31-5.986-6.31-5.986s4.677-4.892,5.747-6.007c.317-.329.557-.243.562.051.012.666.012,2.9.012,2.9a60.6,60.6,0,0,0,6.977-.111,9.49,9.49,0,0,0,2.357-.814A2.977,2.977,0,0,1,735.179,854.978Z" transform="translate(-719.92 -845.372)" fill="#31cf00" fill-rule="evenodd"/></g><g transform="translate(5.716)"><path d="M416.71,188.065c.646-1.175,2.481-4.314,3.656-6.362a2.491,2.491,0,0,1,1.2-1.381,2.936,2.936,0,0,1,1.473-.348c2.391-.132,2.265,1.019,4.041,1.563l-5.308,9.309Z" transform="translate(-416.71 -179.875)" fill="#27a600" fill-rule="evenodd"/><path d="M628.765,176.67c1.021.02,3.772-.059,5.024-.076.37,0,1.119.091,1.384.5s1.685,3.239,2.542,4.748c0,0,2.5-1.277,2.748-1.4.183-.087.349.049.294.217-.029.088-2.52,8.325-2.52,8.325s-6.469-1.985-7.947-2.443c-.436-.135-.467-.389-.206-.525.59-.309,2.59-1.313,2.59-1.313a60.686,60.686,0,0,0-3.228-6.186,9.482,9.482,0,0,0-1.785-1.741A2.976,2.976,0,0,1,628.765,176.67Z" transform="translate(-622.089 -176.594)" fill="#31cf00" fill-rule="evenodd"/></g><g transform="translate(0 9.811)"><path d="M264.443,1005.219c-1.341,0-4.977-.086-7.337-.124a2.491,2.491,0,0,1-1.788-.381,2.937,2.937,0,0,1-1.017-1.122c-1.272-2.03-.2-2.475-.585-4.292l10.714.146Z" transform="translate(-251.299 -989.051)" fill="#27a600" fill-rule="evenodd"/><path d="M167.236,625.477c-.475-.9-1.875-3.273-2.5-4.361a1.775,1.775,0,0,1-.23-1.454c.234-.435,2.021-3.041,2.927-4.52,0,0-2.327-1.57-2.55-1.73a.193.193,0,0,1,.048-.363c.091-.018,8.5-1.819,8.5-1.819s1.391,6.623,1.705,8.138c.093.447-.114.6-.36.434-.556-.367-2.4-1.632-2.4-1.632a60.635,60.635,0,0,0-3.854,5.817,9.491,9.491,0,0,0-.662,2.4A2.967,2.967,0,0,1,167.236,625.477Z" transform="translate(-164.423 -611.23)" fill="#31cf00" fill-rule="evenodd"/></g></g></g></svg>