<svg xmlns="http://www.w3.org/2000/svg" xmlns:xlink="http://www.w3.org/1999/xlink" width="40" height="40" viewBox="0 0 40 40"><defs><clipPath id="b"><rect width="40" height="40"/></clipPath></defs><g id="a"><path d="M2.288,0H10.3c2.483.03,2.362.151,2.288,1.958V7.27c0,1.081-2.6,6.713-6.033,6.7S0,8.351,0,7.27V1.958C.073.184-.179.03,2.288,0Z" transform="translate(13.692 20.691)" fill="#9f9f9f"/><path d="M94.083-82.209c-.666,0-1.34-5.417-1.34-5.417v-9.192s-2.378-1.091-2.708-2.891,1.821-.433,1.821-.433.878,2.371,2.227,2.371,2.223-2.371,2.223-2.371,2.362-1.4,1.7.433a6.22,6.22,0,0,1-2.6,2.891v9.192S94.75-82.209,94.083-82.209Z" transform="translate(-74.012 108.38)" fill="#e1c569"/><path d="M1.029,0h7.2C9.481.026,9.258.461,9.258,1.029s.1.993-1.029,1.029h-7.2C-.08,2.022,0,1.6,0,1.029S-.1-.019,1.029,0Z" transform="translate(15.465 6.342)" fill="#908c8c"/></g></svg>