<svg xmlns="http://www.w3.org/2000/svg" xmlns:xlink="http://www.w3.org/1999/xlink" width="26" height="26" viewBox="0 0 26 26"><defs><clipPath id="b"><rect width="26" height="26"/></clipPath></defs><g id="a"><path d="M.649,0l4.54.083a.719.719,0,0,1,.672.727.66.66,0,0,1-.65.7L.673,1.429A.719.719,0,0,1,0,.7.66.66,0,0,1,.649,0Z" transform="translate(15.163 22.664) rotate(-77.993)" fill="#a1886c"/><path d="M.675.083,5.215,0a.66.66,0,0,1,.65.7.719.719,0,0,1-.675.726L.651,1.512A.66.66,0,0,1,0,.809.719.719,0,0,1,.675.083Z" transform="translate(21.261 22.98) rotate(-102.007)" fill="#a1886c"/><path d="M0,0H2.413V4.3A2.488,2.488,0,0,1,1.2,4.733,2.367,2.367,0,0,1,0,4.3Z" transform="translate(7.415 18.244)" fill="#a1886c"/><path d="M5.85,0,9.628,6.377,11.7,8.45A16.713,16.713,0,0,1,5.85,9.74,16.713,16.713,0,0,1,0,8.45s.317.039,1.78-2.073S5.85,0,5.85,0Z" transform="translate(2.865 10.444)" fill="#54b60b"/><path d="M5.182,0S6.825,2.66,8.125,4.282a10.162,10.162,0,0,0,2.241,2.2,16.7,16.7,0,0,1-5.184.989A16.7,16.7,0,0,1,0,6.486a12.511,12.511,0,0,0,2.108-2.2C3.4,2.66,5.182,0,5.182,0Z" transform="translate(3.552 8.808)" fill="#54b60b"/><path d="M3.315,0A20.038,20.038,0,0,0,4.661,3.673,12.48,12.48,0,0,0,6.63,6.43a7.57,7.57,0,0,1-3.315.98A7.57,7.57,0,0,1,0,6.43,13.775,13.775,0,0,0,1.9,3.673,23.57,23.57,0,0,0,3.315,0Z" transform="translate(5.502 4.323)" fill="#54b60b"/><rect width="8.57" height="2.6" rx="1.3" transform="translate(14.565 15.638)" fill="#cc995e"/><rect width="8.57" height="1.3" rx="0.65" transform="translate(14.565 19.538)" fill="#cc995e"/><path d="M26,26h0Z" fill="#54b60b"/></g></svg>