<svg xmlns="http://www.w3.org/2000/svg" xmlns:xlink="http://www.w3.org/1999/xlink" width="26" height="26" viewBox="0 0 26 26"><defs><clipPath id="b"><rect width="26" height="26"/></clipPath></defs><g id="a"><path d="M-19-691s-5.7-2.861-6.746-5.724.405-7.034,0-8.263-1.167-1.236-1.167-1.236l1.9-1.785a3.215,3.215,0,0,0,2.7,1.191c1.568-.24,3.57-2.152,3.57-2.152s1.918,1.912,3.388,2.152a2.857,2.857,0,0,0,2.492-1.191l1.854,1.785a2.109,2.109,0,0,0-1.212,1.236c-.45,1.025,1.106,5.8,0,8.263S-19-691-19-691Z" transform="translate(32 713)" fill="#ffb80e"/><g transform="translate(-0.241 0.573)"><path d="M13.246,17.377C13.023,16.748,11.8,13.2,11.8,13.2h2.878Z" fill="#fff"/><path d="M9,14.935c.437-.532,2.923-3.506,2.923-3.506l1.636,2.491Z" fill="#fff"/><path d="M9.125,9.684c.672.193,4.448,1.311,4.448,1.311L11.9,13.266Z" fill="#fff"/><path d="M13.27,6.849c.244.641,1.586,4.256,1.586,4.256H11.692Z" fill="#fff"/><path d="M17.819,9.692c-.44.527-2.944,3.472-2.944,3.472l-1.587-2.411Z" fill="#fff"/><path d="M17.411,15.268c-.676-.187-4.474-1.273-4.474-1.273l1.72-2.335Z" fill="#fff"/><ellipse cx="1.295" cy="1.249" rx="1.295" ry="1.249" transform="translate(11.967 11.045)" fill="#945b22"/></g></g></svg>