<svg xmlns="http://www.w3.org/2000/svg" xmlns:xlink="http://www.w3.org/1999/xlink" width="40" height="40" viewBox="0 0 40 40"><defs><clipPath id="b"><rect width="40" height="40"/></clipPath></defs><g id="a"><path d="M733.5-302.422l17.411,15.436L767.1-297.967v-1.62l-33.595-4.44Z" transform="translate(-731 321.306)" fill="#434343"/><path d="M1223.5-1133.647l17.382,14.892,16.223-10.511-17.525-14.714Z" transform="translate(-1221 1150.886)" fill="#6f6f6f"/><path d="M1222.637-1140.615l7.24,6.149,6.517-4.32-7.3-6.078Z" transform="translate(-1218 1158.06)" fill="#ffb765"/><path d="M1222.838-1140.644l7.24,6.149,6.517-4.32-7.3-6.078Z" transform="translate(-1210 1165.06)" fill="#8cb715"/><path d="M1222.251-1140.539l7.24,6.149,6.517-4.32-7.3-6.078Z" transform="translate(-1202 1160.06)" fill="#d23fff"/><path d="M1223.065-1141.455l7.24,6.149,6.517-4.32-7.3-6.078Z" transform="translate(-1211 1154.06)" fill="#4dbad6"/></g></svg>