<svg xmlns="http://www.w3.org/2000/svg" xmlns:xlink="http://www.w3.org/1999/xlink" width="26" height="26" viewBox="0 0 26 26"><defs><clipPath id="b"><rect width="26" height="26"/></clipPath></defs><g id="a"><path d="M-.387-3.149,4.5-.773,9.751-3.149V2.394A12.006,12.006,0,0,1,4.5,4.054,9.737,9.737,0,0,1-.387,2.394Z" transform="translate(8.649 16.434)" fill="#61819c"/><path d="M0,0,12.4,5.016l4.884,12.265L4.337,13.075Z" transform="translate(0.781 10.188) rotate(-45)" fill="#819bad"/><path d="M0,.523,1.08,0V6.811H0Z" transform="translate(22.72 11.268)" fill="#959595"/><path d="M1.654-.513c.895,0,1.62.967,1.62,2.16s-1.62,2.721-1.62,2.721S.034,2.84.034,1.647.759-.513,1.654-.513Z" transform="translate(21.607 18.867)" fill="#aabbc0"/></g></svg>