<svg xmlns="http://www.w3.org/2000/svg" xmlns:xlink="http://www.w3.org/1999/xlink" width="40" height="40" viewBox="0 0 40 40"><defs><clipPath id="b"><rect width="40" height="40"/></clipPath></defs><g id="a"><path d="M733.5-302.422l17.411,15.436L767.1-297.967v-1.62l-33.595-4.44Z" transform="translate(-731 321.306)" fill="#434343"/><g transform="translate(-1221 1150.886)" fill="#819bad"><path d="M 1240.97021484375 -1120.000732421875 L 1225.175903320312 -1133.531982421875 L 1239.506103515625 -1142.740600585938 L 1255.430908203125 -1129.369873046875 L 1240.97021484375 -1120.000732421875 Z" stroke="none"/><path d="M 1239.427124023438 -1141.501098632812 L 1226.847045898438 -1133.417114257812 L 1241.053466796875 -1121.246215820312 L 1253.752075195312 -1129.473754882812 L 1239.427124023438 -1141.501098632812 M 1239.585083007812 -1143.97998046875 L 1257.109741210938 -1129.26611328125 L 1240.886962890625 -1118.755249023438 L 1223.5048828125 -1133.646850585938 L 1239.585083007812 -1143.97998046875 Z" stroke="none" fill="#cceaf4"/></g><ellipse cx="3" cy="2" rx="3" ry="2" transform="translate(2 15)" fill="#cceaf4"/><ellipse cx="3" cy="2" rx="3" ry="2" transform="translate(15 7)" fill="#cceaf4"/><ellipse cx="3" cy="2" rx="3" ry="2" transform="translate(31 20)" fill="#cceaf4"/><ellipse cx="3" cy="2" rx="3" ry="2" transform="translate(17 29)" fill="#cceaf4"/></g></svg>