<svg xmlns="http://www.w3.org/2000/svg" xmlns:xlink="http://www.w3.org/1999/xlink" width="26" height="26" viewBox="0 0 26 26"><defs><clipPath id="a"><rect width="26" height="26"/></clipPath></defs><g id="b"><text transform="translate(-8 43)" fill="#707070" font-size="18" font-family="SegoeUI, Segoe UI"><tspan x="0" y="0">new</tspan></text><g><g transform="translate(5.968 4.04)"><g transform="translate(0)"><path d="M.687,0H1.94a.691.691,0,0,1,.686.695V3.024a.691.691,0,0,1-.686.694H.687A.691.691,0,0,1,0,3.024V.695A.691.691,0,0,1,.687,0Z" transform="translate(13.818 18.06) rotate(180)" fill="#aabbc0"/><rect width="2.626" height="3.718" rx="1" transform="translate(0.363 14.342)" fill="#aabbc0"/><path d="M9.353,3h6.828a3.7,3.7,0,0,1,3.676,3.718V16.811a2.137,2.137,0,0,1-.616,1.5,2.089,2.089,0,0,1-1.486.622H7.778a2.113,2.113,0,0,1-2.1-2.125V6.718A3.74,3.74,0,0,1,6.753,4.089,3.656,3.656,0,0,1,9.353,3" transform="translate(-5.677 -3)" fill="#54b60b"/><rect width="10.829" height="7.99" rx="2" transform="translate(1.676 2.493)" fill="#61819c"/><rect width="5.778" height="1.594" rx="0.797" transform="translate(4.201 0.368)" fill="#f3e195"/></g><ellipse cx="1.236" cy="1.251" rx="1.236" ry="1.251" transform="translate(10.658 11.946)" fill="#fff"/><ellipse cx="1.236" cy="1.251" rx="1.236" ry="1.251" transform="translate(1.05 11.946)" fill="#fff"/></g><path d="M.027,1.052h1.2V5.914H.027a.65.65,0,0,1-.6-.694V1.746A.65.65,0,0,1,.027,1.052Z" transform="translate(4.345 7.191)" fill="#54b60b"/><path d="M1.045,1.071h-1.2V5.933h1.2a.65.65,0,0,0,.6-.695V1.765a.65.65,0,0,0-.6-.694Z" transform="translate(20.699 7.186)" fill="#54b60b"/></g></g></svg>