<svg xmlns="http://www.w3.org/2000/svg" xmlns:xlink="http://www.w3.org/1999/xlink" width="26" height="26" viewBox="0 0 26 26"><defs><clipPath id="b"><rect width="26" height="26"/></clipPath></defs><g id="a"><g transform="translate(-0.341 0.792)"><path d="M14.31,7.033a15.639,15.639,0,0,0-2.681-3.591.213.213,0,0,0-.307,0A15.456,15.456,0,0,0,8.649,7.025a13.144,13.144,0,0,0-1.9,6.353c0,.045,0,.093,0,.138a5.952,5.952,0,0,0,.322,1.937,5.682,5.682,0,0,0,.449.978,4.609,4.609,0,0,0,3.951,2.409c2.61,0,4.728-2.383,4.728-5.324A13.227,13.227,0,0,0,14.31,7.033Z" transform="translate(1.856 0.834)" fill="#39c2ff"/></g></g></svg>