<svg xmlns="http://www.w3.org/2000/svg" xmlns:xlink="http://www.w3.org/1999/xlink" width="40" height="40" viewBox="0 0 40 40"><defs><clipPath id="b"><rect width="40" height="40"/></clipPath></defs><g id="a"><path d="M733.5-302.422l17.411,15.436L767.1-297.967v-1.62l-33.595-4.44Z" transform="translate(-731 321.306)" fill="#434343"/><path d="M1223.5-1133.647l17.382,14.892,16.223-10.511-17.525-14.714Z" transform="translate(-1221 1150.886)" fill="#43ae00"/><g transform="translate(1.812 -0.388) scale(0.819 1)"><path d="M768.965-151.588l2.787-1.393-.38-1.338,1.688-.5,1.346.5,2.164-1.006V-163.4l-7.605,3.041Z" transform="translate(-747.782 176.983)" fill="#8d7e43"/><path d="M773.094-154.633v-6.928l1.46-.479v7.987Z" transform="translate(-747.92 176.765)" fill="#62572f"/><path d="M769.726-161.833l7.8-3.527v1.477l-7.8,3.584Z" transform="translate(-747.808 177.337)" fill="#8d7e43"/><path d="M761.275-164.938l9.214,5.172,7.766-3.865-8.679-4.48Z" transform="translate(-748.445 175.499)" fill="#f8eec5"/><path d="M764.084-164.857l5.495,2.894v-2.642l-5.495-2.686Z" transform="translate(-747.745 175.823)" fill="#e8dcad"/><path d="M768.462-161.8l4.622-2.14v-2.5l-4.622,2.12Z" transform="translate(-746.628 175.593)" fill="#8d7e43"/><path d="M768.133-153.291v6.058l4.527,3.006v-6.3" transform="translate(-745.714 172.01)" fill="#e8dcad"/><path d="M768.546-153.635v4.882l4.5,2.849.44-4.93" transform="translate(-758.985 166.37)" fill="#e8dcad"/><path d="M770.426-144.32l5.416-2.773v-5.972l-5.416,2.41Z" transform="translate(-743.516 172.123)" fill="#8d7e43"/><path d="M773.724-155.3l4.419,2.923-5.465,2.528-4.564-2.916Z" transform="translate(-745.739 171.438)" fill="#f8eec5"/><path d="M772.789-154.929l3.69,3.415-3.216,1.01-4.712-2.706Z" transform="translate(-759 165.992)" fill="#f8eec5"/><path d="M760.771-156.611l2.047,1.334,1-.615,1.719,1.1v1.017l3.1,1.8v-8.909l-7.579-4Z" transform="translate(-747.458 177.289)" fill="#e8dcad"/><path d="M762.835-155.063l-.158-8.265,1.234.641v6.988Z" transform="translate(-747.572 177.123)" fill="#8d7e43"/><path d="M764.4-159.554v5.262l1.067.725v-5.184Z" transform="translate(-747.665 174.993)" fill="#44a2ad"/><path d="M760.543-165.675l8.706,5.286v-1.8l-8.706-4.947Z" transform="translate(-747.33 177.846)" fill="#e8dcad"/></g><path d="M-288.549-163.67" transform="translate(317 174)" fill="none" stroke="#707070" stroke-width="1"/><path d="M-302.923-166.5l5.1,3.236v-9.7Z" transform="translate(317.257 175.016)" fill="#85c1bd"/><path d="M-297.7-171.905l4.9,7.345-4.9,2.327Z" transform="translate(317.081 173.989)" fill="#809493"/></g></svg>