<?xml version="1.0" encoding="utf-8"?>
<!-- Generator: Adobe Illustrator 25.2.0, SVG Export Plug-In . SVG Version: 6.00 Build 0)  -->
<svg version="1.1" id="Layer_1" xmlns="http://www.w3.org/2000/svg" xmlns:xlink="http://www.w3.org/1999/xlink" x="0px" y="0px"
	 viewBox="0 0 40 40" style="enable-background:new 0 0 40 40;" xml:space="preserve">
<style type="text/css">
	.st0{clip-path:url(#SVGID_1_);}
	.st1{fill:#3152FF;}
	.st2{fill:#001626;}
	.st3{fill:#FFFFFF;}
</style>
<g>
	<defs>
		<rect id="SVGID_3_" width="40" height="40"/>
	</defs>
	<clipPath id="SVGID_1_">
		<use xlink:href="#SVGID_3_"  style="overflow:visible;"/>
	</clipPath>
	<g id="LandmarkBuildings" class="st0">
		<g id="Group_2620" transform="translate(35.092 40)">
			<path id="Path_3383" class="st1" d="M1.9-40h-34c-1.7,0-3,1.3-3,3v34c0,1.7,1.3,3,3,3h34c1.7,0,3-1.3,3-3v-34
				C4.9-38.7,3.6-40,1.9-40C1.9-40,1.9-40,1.9-40z"/>
		</g>
		<g id="Group_2621" transform="translate(33.812 1.342)">
			<path id="Path_3384" class="st2" d="M0,37.3h-27.6c-2.7,0-4.8-2.2-4.8-4.8c0,0,0,0,0,0V4.8c0-2.7,2.2-4.8,4.8-4.8c0,0,0,0,0,0H-2
				l6.8,6.8v25.7C4.8,35.1,2.7,37.3,0,37.3C0,37.3,0,37.3,0,37.3"/>
		</g>
		<path class="st3" d="M31.2,20.6c-0.1-0.7,0.6-1.3,0.2-2c-0.3-0.7-2-0.7-2-1.5c0-0.9,1.3-0.5,1.9-0.4c0-1.5-0.6-2.8-2.2-1.8
			c-0.3,0-0.6-0.1-0.8-0.3c-0.5-0.9,1-1.1,1-1.8c0-0.4-0.5-0.7-0.6-1c-0.1-0.2,0-0.5,0-0.7c0-0.1-0.1-0.1-0.2-0.1
			c-0.3-0.1-0.6,0.1-0.9,0c-0.3-0.1-0.5-0.4-0.8-0.5c0,0.1-0.2,0.3-0.3,0.4c-0.2,0.3-1,1.4-1.5,0.9c-0.2-0.2-0.2-0.5-0.1-0.8
			c0.3-1.9-0.4-2.1-2.1-2.4c-0.4-0.1-1.5-0.3-1.9-0.2c0,0.3,0.4,2.6-0.3,2.5c-0.9,0-0.4-2.3-1.7-2.6c-0.2,0.1-0.5,0.1-0.6,0.3
			c-0.2,0.3,0.2,1.1,0.3,1.4c0.1,0.4,0.1,0.9-0.1,1.3v0.1c-1.4,0-1.3-3.2-3.6-1.6c0,0.9,2,1.9,1.3,2.9C16,12.9,15.8,13,15.6,13
			c-1.1,0.1-1.5-2.2-2.8-2c-0.2,0-0.4,0.2-0.5,0.4c-0.3,0.6,1.1,1.4,1.3,1.9c0.1,0.3,0,0.6,0,0.9c-1,0-2.2-1.5-3.2-0.5
			c-0.2,0.1-0.3,0.3-0.3,0.6c0.1,0.4,0.8,0.3,1,0.7l0,0c0.4,0.8-0.5,1.4-0.5,2.2c0,0.4,0.3,0.6,0.2,1c-0.4,1.4-1.7-0.2-2.4,0.4
			c-0.6,0.5,0.1,1.7,0.1,2.3c0,0.4-0.2,0.7-0.2,1.1c0,0.4,0.2,0.6,0.3,1c0.1,0.4,0,0.9,0.2,1.3c0.7,1.1,1.9-1.9,2.5-0.6
			c0.4,1-1.8,1-1.8,1.7c-0.1,0.8,1.3,1.5,1.8,2c0.5,0.4,0.8,1,0.9,1.6c0.1,0.6-0.2,1.3-0.4,1.8c0.2,0,0.4,0.1,0.6,0
			c1.1-0.3,1.8-2.1,1.6-3.2c-0.2-0.9-0.7-1.7-0.7-2.7c-0.1-1,0.9-2.6,0-3.3c0,0-0.1,0-0.1-0.1c0,0.1-0.2,0.1-0.3,0.1
			c-0.2,0-0.4-0.1-0.5-0.2c-0.2-0.2-0.3-0.4-0.2-0.6c0.2-0.3,0.8-0.3,0.9-0.7c0.2-0.9-1.8-1.1-0.6-2.3c0.2-0.2,0.5-0.4,0.9-0.4
			c0.6,0,1.9,0.4,1.8,1.2c0,0.3-0.3,0.6-0.2,1c0.1,0.4,0.7,0.3,0.8,0.7c0.2,0.5-0.2,0.8-0.2,1.3c0,0.1,0.1,0.2,0.1,0.2
			c0.2,0.1,0.5,0.2,0.6,0.4c0.3,0.6-0.4,1.2,0.5,1.5c0-0.4-0.1-0.9,0.3-1.1c0,0.1,0.2,0.2,0.2,0.3c0.3,0.4,0.4,0.9,1,1
			c0-0.8-0.5-1.6-0.5-1.6c0.4,0,0.7,0.5,1.1,0.4c0.4-0.1,0-0.6-0.1-0.8c-0.3-0.6,0.1-1,0-1.6c-0.2-0.6-1.7-1-2.1-1.4
			c-0.2-0.1-0.3-0.4-0.2-0.6c0.3-0.9,1.3-0.4,2-0.6c0.3-0.1,0.6-0.3,0.8-0.6c0.3-0.4,0.6-1,0.4-1.5c-0.1-0.3-0.3-0.5-0.3-0.9
			c0.2-1.6,2.8-1.5,3.9-0.9c0.6,0.3,1.1,1,0.8,1.6c-0.3,0.6-1,0.2-1.5,0.5c-0.4,0.2-1,1.1-1.2,1.5c-0.2,0.6,0.4,1.1,0.4,1.7
			c0.1,1.4-0.6,2.6-0.8,3.8c-0.1,0.2,0.1,0.5,0,0.7c-0.2,0.3-0.6,0.2-0.9,0.3c-0.3,0.1-0.4,0.3-0.6,0.4c-0.5,0.3-1,0.4-1.1,1.1
			c0.3,0,0.5-0.2,0.8-0.2c0,0,0.1,0,0.1,0.1c0,0,0,0,0,0.1c-0.1,0.6-0.5,1-0.2,1.6c0.4,0,0.5-0.9,1.2-0.7c0.1,0,0.1,0,0.1,0.1
			c0.1,0.4,0.2,0.8,0.4,1.2c0.1,0,0.3-0.1,0.3-0.2c0-0.4-0.1-1,0.1-1.4c0.2-0.5,0.5-0.4,0.5-1.1c0.1,0,0.2-0.2,0.3-0.2
			c0.8-0.3,1-0.8,2-0.7c0.2,0,0.5,0,0.7,0.1c0.2,0,0.1-0.3,0-0.5c-0.4-1.2-0.8-2.4-0.8-3.8h0.2c0,0.2,0.6,1,0.7,1.2
			c0.2,0.2,0.7,1.4,1.1,1.1c0.2-0.1,0.3-1.6,0.5-1.9c0.4-1.2,1.7-1.4,2.4-0.3c0.7,1.1,0.3,3.4-0.6,4.2c-0.3,0.3-0.8,0.3-1.2,0.6
			c-0.3,0.3,0,0.9-0.1,1.3c-0.1,0.4-0.3,0.7-0.6,1c-0.6,0.6-1.5,0.9-2.1,1.5c-0.3,0.2-0.3,0.6-0.7,0.8c-0.3,0.1-0.7,0-1.1,0.1
			c-0.2,0.2-0.5,0.3-0.8,0.5c-0.5,0.2-1.2,0.7-1.5,0.7c0,1,2.4,0.5,2.9,0.2c0.3-0.2,0.4-0.6,0.8-0.8c0.4-0.2,0.7,0.2,1.1,0.1
			c0.4-0.1,0.7-0.4,1-0.6c0.6-0.4,1.3-0.8,1.9-1.3c0.2-0.2,0.5-0.4,0.6-0.6c0.2-0.4-0.5-1.4,0.7-1.3c0.9,0.1,1.8-1.7,2-2.4
			c0.1-0.5,0.2-1,0.3-1.5c0.1-0.3,0.2-0.6,0.4-0.9C31.9,21.2,31.3,21.2,31.2,20.6L31.2,20.6z M10.6,22.6c-0.7,0.2-1.2-0.7-0.9-1.3
			c0.1-0.2,0.3-0.4,0.6-0.5c0.3,0,0.5,0.1,0.7,0.2C11.6,21.5,11.3,22.4,10.6,22.6z M15.5,17.3c-0.1,0-0.2,0-0.3-0.1
			c-0.9-0.4-0.5-1-0.2-1.6C15.7,15.8,15.9,17.1,15.5,17.3z M16.7,20c0.9,0.4,1.1,1.1,1.1,1.5c0,0.1-0.1,0.2-0.1,0.2s-0.2,0.1-0.5,0
			C16.6,21.4,16.7,20.7,16.7,20z M23.5,23c0,0.3-0.1,0.4-0.3,0.6c-0.3,0-0.6-0.2-0.7-0.5c-0.1-0.3,0-0.6,0-0.9c0.1-1,0.1-2,0.5-2.9
			c0.3,0.7,0.2,1.5,0.4,2.3C23.4,22.1,23.6,22.5,23.5,23L23.5,23z M28.2,18.8c-0.4,0-0.9,0.1-1.3,0c-1.6-0.3-0.2-2.1,0.1-2.9
			C27.7,16.5,28.4,17.9,28.2,18.8z"/>
	</g>
</g>
</svg>
